<svg id="Group_3429" data-name="Group 3429" xmlns="http://www.w3.org/2000/svg" width="28.857" height="28.857" viewBox="0 0 28.857 28.857">
  <path id="Path_9691" data-name="Path 9691" d="M2146.5,4327.049h-2.14c-.46-.076-.929-.06-1.39-.144a14.413,14.413,0,0,1-6.76-3.146,14.26,14.26,0,0,1-4.133-5.639,12.722,12.722,0,0,1-1.01-4.475,17.116,17.116,0,0,1,.155-3.558,14.508,14.508,0,0,1,8.779-10.864,12.726,12.726,0,0,1,4.475-1.01,17.134,17.134,0,0,1,3.558.156,14.515,14.515,0,0,1,10.865,8.78,13.828,13.828,0,0,1,.934,3.468c.041.313.014.633.07.945v2.2c-.073.47-.062.947-.149,1.418a14.536,14.536,0,0,1-8.783,10.867,13.772,13.772,0,0,1-3.5.938C2147.147,4327.024,2146.818,4327,2146.5,4327.049Z" transform="translate(-2131.04 -4298.192)" fill="#fe1803"/>
  <path id="Path_9692" data-name="Path 9692" d="M2238.188,4390.5q0-2.561,0-5.122a.993.993,0,0,1,.89-1.077,1.144,1.144,0,0,1,.742.205l5.646,3.243c1.054.606,2.111,1.208,3.163,1.819a1.012,1.012,0,0,1,.507,1.372,1.248,1.248,0,0,1-.573.555q-4.146,2.388-8.29,4.781c-.154.088-.31.174-.459.27a1.039,1.039,0,0,1-1.626-.925Q2238.192,4393.063,2238.188,4390.5Z" transform="translate(-2227.974 -4376.088)" fill="#fefefe"/>
</svg>
