<svg xmlns="http://www.w3.org/2000/svg" width="29.885" height="22.809" viewBox="0 0 29.885 22.809">
  <g id="Group_3007" data-name="Group 3007" transform="translate(-74.558 -139.191)">
    <path id="Path_9918" data-name="Path 9918" d="M-3130.681-398.875q11.131,0,22.262,0c.184,0,.38-.059.553.062q-.011,1.284-.023,2.569a.547.547,0,0,1-.456.21c-.19.011-.38.014-.57.014q-10.388,0-20.775-.006c-.345,0-.741.125-1.015-.23C-3130.721-397.127-3130.75-398-3130.681-398.875Z" transform="translate(3212.309 538.076)" fill="rgba(255,131,25,0.76)"/>
    <path id="Path_9919" data-name="Path 9919" d="M-3130.888-376.79q4.207.006,8.414.011,7.2,0,14.4,0c.005.776,0,1.552.02,2.328.005.25-.083.349-.33.324a3.291,3.291,0,0,0-.333,0q-10.787,0-21.575,0c-.2,0-.412.07-.6-.067a18.014,18.014,0,0,1,0-2.592Z" transform="translate(3212.489 518.613)" fill="#ff8319"/>
    <path id="Path_9920" data-name="Path 9920" d="M-3130.727-322.777c-.005-.744,0-1.488-.021-2.231-.007-.28.08-.421.377-.391a2.758,2.758,0,0,0,.285,0q10.78,0,21.559,0c.732,0,.629-.048.631.639,0,.664-.009,1.329-.014,1.994a.547.547,0,0,1-.456.21c-.19.011-.38.014-.57.014q-10.388,0-20.775-.006C-3130.057-322.547-3130.453-322.422-3130.727-322.777Z" transform="translate(3212.328 473.348)" fill="rgba(255,131,25,0.76)"/>
    <path id="Path_9921" data-name="Path 9921" d="M-3130.888-303.362q4.207.006,8.414.011,7.2,0,14.4,0c.005.776,0,1.552.02,2.328.005.249-.083.349-.33.324a3.264,3.264,0,0,0-.333,0q-10.787,0-21.575,0c-.2,0-.411.069-.6-.067a17.979,17.979,0,0,1,0-2.592Z" transform="translate(3212.489 453.934)" fill="#ff8319"/>
    <path id="Path_9922" data-name="Path 9922" d="M-3130.727-249.349c-.005-.744,0-1.487-.021-2.231-.007-.28.08-.421.377-.391a2.8,2.8,0,0,0,.285,0q10.78,0,21.559,0c.732,0,.629-.048.631.639,0,.664-.009,1.329-.014,1.994a.547.547,0,0,1-.456.21c-.19.011-.38.014-.57.014q-10.388,0-20.775-.006C-3130.057-249.119-3130.453-248.994-3130.727-249.349Z" transform="translate(3212.328 408.666)" fill="rgba(255,131,25,0.76)"/>
    <path id="Path_9923" data-name="Path 9923" d="M-3130.888-229.935q4.207.006,8.414.011,7.2,0,14.4,0c.005.776,0,1.552.02,2.328.005.249-.083.349-.33.324a3.256,3.256,0,0,0-.333,0q-10.787,0-21.575,0c-.2,0-.412.07-.6-.067a18.015,18.015,0,0,1,0-2.592Z" transform="translate(3212.489 389.252)" fill="#ff8319"/>
    <path id="Path_9924" data-name="Path 9924" d="M-3189.525-396.16c-.005-.773-.006-1.547-.018-2.32,0-.215.058-.316.292-.315,1.61.008,3.22.007,4.83.012a.4.4,0,0,1,.129.05l-.023,2.572a.668.668,0,0,1-.6.216q-2.008.021-4.017,0A.645.645,0,0,1-3189.525-396.16Z" transform="translate(3264.119 537.996)" fill="rgba(255,131,25,0.76)"/>
    <path id="Path_9925" data-name="Path 9925" d="M-3189.66-376.684h5.209c.009.773.007,1.547.031,2.319.01.338-.185.333-.424.333q-2.109-.006-4.218,0c-.173,0-.346.012-.52.019-.2-.254-.081-.547-.088-.82C-3189.685-375.45-3189.666-376.067-3189.66-376.684Z" transform="translate(3264.255 518.52)" fill="#ff8319"/>
    <path id="Path_9926" data-name="Path 9926" d="M-3189.572-322.9c0-.744.009-1.488-.023-2.231-.016-.364.143-.409.447-.407,1,.007,1.993-.011,2.99-.019.473.008.946.027,1.419.019.268,0,.407.056.4.365-.022.757-.016,1.515-.021,2.272a.668.668,0,0,1-.6.216q-2.009.021-4.017,0A.646.646,0,0,1-3189.572-322.9Z" transform="translate(3264.167 473.484)" fill="rgba(255,131,25,0.76)"/>
    <path id="Path_9927" data-name="Path 9927" d="M-3189.66-303.256h5.209c.009.773.007,1.547.031,2.319.01.338-.185.333-.424.333q-2.109-.006-4.218,0c-.173,0-.347.012-.52.019-.2-.254-.081-.547-.088-.82C-3189.684-302.022-3189.665-302.639-3189.66-303.256Z" transform="translate(3264.254 453.84)" fill="#ff8319"/>
    <path id="Path_9928" data-name="Path 9928" d="M-3189.559-249.472c-.005-.744,0-1.488-.022-2.231-.01-.311.086-.41.4-.407,1.012.008,2.025-.01,3.037-.019.473.008.946.027,1.419.019.268,0,.406.057.4.365-.022.757-.015,1.515-.02,2.272a.668.668,0,0,1-.6.216q-2.009.021-4.017,0A.646.646,0,0,1-3189.559-249.472Z" transform="translate(3264.153 408.803)" fill="rgba(255,131,25,0.76)"/>
    <path id="Path_9929" data-name="Path 9929" d="M-3189.66-229.828h5.209c.009.773.007,1.547.031,2.319.01.338-.185.333-.424.333q-2.109-.006-4.218,0c-.173,0-.346.012-.52.019-.2-.254-.081-.547-.088-.82C-3189.685-228.594-3189.665-229.211-3189.66-229.828Z" transform="translate(3264.255 389.158)" fill="#ff8319"/>
    <path id="Path_9930" data-name="Path 9930" d="M-3131.124-376.79v2.592A10.61,10.61,0,0,1-3131.124-376.79Z" transform="translate(3212.73 518.613)" fill="#5a5a5a"/>
    <path id="Path_9931" data-name="Path 9931" d="M-3131.124-303.362v2.592A10.61,10.61,0,0,1-3131.124-303.362Z" transform="translate(3212.73 453.934)" fill="#5a5a5a"/>
    <path id="Path_9932" data-name="Path 9932" d="M-3131.124-229.935v2.592A10.611,10.611,0,0,1-3131.124-229.935Z" transform="translate(3212.73 389.252)" fill="#5a5a5a"/>
  </g>
</svg>
