<svg xmlns="http://www.w3.org/2000/svg" xmlns:xlink="http://www.w3.org/1999/xlink" width="90.238" height="59.002" viewBox="0 0 90.238 59.002">
  <defs>
    <linearGradient id="linear-gradient" x1="0.853" y1="0.147" x2="0.147" y2="0.853" gradientUnits="objectBoundingBox">
      <stop offset="0" stop-color="#ce8a1e"/>
      <stop offset="0.133" stop-color="#ffe67a"/>
      <stop offset="0.253" stop-color="#feb519"/>
      <stop offset="0.415" stop-color="#4b301a"/>
      <stop offset="0.612" stop-color="#bc720c"/>
      <stop offset="0.833" stop-color="#ffd68e"/>
      <stop offset="1" stop-color="#b5710e"/>
    </linearGradient>
    <linearGradient id="linear-gradient-2" y1="0.5" x2="1" y2="0.5" gradientUnits="objectBoundingBox">
      <stop offset="0" stop-color="#069ddd"/>
      <stop offset="1" stop-color="#0db6fd"/>
    </linearGradient>
    <linearGradient id="linear-gradient-3" x1="0.967" y1="0.147" x2="0.166" y2="0.853" xlink:href="#linear-gradient"/>
  </defs>
  <g id="Group_3430" data-name="Group 3430" transform="translate(-603.549 -121.499)">
    <g id="Group_2893" data-name="Group 2893" transform="translate(208.699 -138.83)">
      <path id="Path_9934" data-name="Path 9934" d="M473.483,319.331a29.5,29.5,0,1,1,29.5-29.5A29.534,29.534,0,0,1,473.483,319.331Zm0-57.216A27.715,27.715,0,1,0,501.2,289.83,27.746,27.746,0,0,0,473.483,262.115Z" transform="translate(-34.542)" fill="url(#linear-gradient)"/>
      <path id="Path_9935" data-name="Path 9935" d="M483.7,311.742q-4.156-.062-8.337-.067c.208-.388-.556-.728-1.15-1.177-.627-.269.166-.864-.805-1.1l1.722-.139c.061-.324-2.11.382-1.661-.184a14.284,14.284,0,0,0,2.087-.274c-.262-.4-2.39.087-2.308-.345.366-.136,1.964.372,2.067-.167.02-.108-.668-.052-1.013-.025,1.282-.233,2.2-.554,2.285-.853q2.012-.095,4.02-.187c1.586-.268.782-.684.775-1.124-1.4.042-2.789.124-4.119.174a5.266,5.266,0,0,0-.492-.278,16.6,16.6,0,0,0-2.327-.6c.049-.03.1-.06.148-.088a8.806,8.806,0,0,1,3.748-.889c1.416,0,3.554.611,4.061.467.8-.225-1.785-.845-.986-1.071q-1.964-.255-3.916-.475c-1.3-.139-2.6-.2-3.893-.292l-1.941-.118c-.646-.029-1.291-.035-1.936-.051l-.426-.007c-.936-.533-3.9-.054-4.673-.456-2.393-.368,1.579-.707,3.962-.779-.8-.416,1.589-.048,1.582-.488-.014-.88-.029-1.761-3.217-2.326-.8-.2-.014-.88-.021-1.32-9.535.285-19.864.593-29.384,1.758-7.935.9-17.562.238-25.42,1.2-2.381.291-6.367-.471-7.937.677l2.382-.071c-2.372.732-4.767.142-7.146.434.007.44.011.66-.781.9a46.9,46.9,0,0,1,5.563-.166l.011.66c-1.587.268-3.977-.1-5.563.166,0,.221.011.661.014.881s-.791.243-1.585.267l3.178-.1c0,.22.011.66.014.88s-.79.244-1.586.268c.007.44-.78.9.018,1.1l2.384-.071c-3.175.315-4.747,1.463-4.736,2.123.792-.244.8.416,1.593.172-2.372.731-4.742,1.683-1.561,1.808q2.907-.018,5.825-.059l-.037.013c.618.118,1.191.241,1.69.369a12.745,12.745,0,0,0-3.164.495c-2.807.753-1.174,1.155-.038,1.807.8.253-.23.874,1.02,1.081l-2.227.183c-.084.329,2.732-.433,2.143.143a25.961,25.961,0,0,0-2.7.325c.331.4,3.092-.14,2.978.287-.474.157-2.533-.324-2.676.22-.029.109.864.038,1.31,0-2.733.429-4.221,1.078-1.685,1.407-.871.069-2.113-.034-3.03.128,0,0,.005.005.007.008.46-.027,1.258,0,1.682-.029l-1.568.124a3.4,3.4,0,0,0,.285.193,8.1,8.1,0,0,0,1.2.009l-1.042.083a6.82,6.82,0,0,0,.912.405,19.78,19.78,0,0,0,3.14.547c5.421-.307,10.853-.761,16.228-1.379,0-.2-.3-.357.137-.5a4.221,4.221,0,0,1,.809-.116c.079.543-.788,1.1-.191,1.633a4.357,4.357,0,0,0,2.313.391c-.707.165-1.319.346-1.349.549a2.822,2.822,0,0,1-.081.37l-.154,0a.463.463,0,0,1,.122.1c-.01.03-.019.06-.03.09-.275.1-1.533-.065-1.531.271a1.8,1.8,0,0,0,.33,1.24,7.988,7.988,0,0,1-2.3,1.129c-1.109.278-2.843.011-3.229.223-.61.348,1.476.565.869.913a43.1,43.1,0,0,0,6.229-.695c.424-.078.846-.166,1.268-.256.206.292-.264.8-.262,1.155l1.479-.017c-.658.23-1.317.468-1.976.708.477.158.919.318,1.3.478a7.376,7.376,0,0,0-2.453.293c-2.178.62-.915,1.1-.048,1.8.616.295-.185.853.774,1.139l-1.713.067c-.068.319,2.1-.3,1.644.253a13.324,13.324,0,0,0-2.077.188c.251.412,2.373.009,2.282.441-.366.113-1.939-.454-2.053.08-.022.108.662.079,1,.065-2.1.3-3.237.876-1.3,1.326a19.714,19.714,0,0,0-2.317-.017s0,.005.006.008c.352-.005.962.064,1.286.051l-1.2.05a2.963,2.963,0,0,0,.218.206,4.787,4.787,0,0,0,.914.066l-.8.033a5.156,5.156,0,0,0,.7.448,12.419,12.419,0,0,0,2.389.7c4.132,0,8.276-.033,12.4-.136,0-.2-.22-.384.12-.487,1.072-.227,1.947.413,3.02.194l.073-.318c.835.112,1.7.26,2.591.4,1.63-.076,3.251-.189,4.866-.3-.042-.115-.063-.222.1-.265a19.3,19.3,0,0,1,2.568.036l.425-.055a.376.376,0,0,0,.155-.248c.436.01.824.04,1.184.074,4.736-.627,9.556-1.3,14.793-1.856a25.446,25.446,0,0,1,3.29-.6,51.165,51.165,0,0,1,5.127.349c-.207-1.13,3.565-1.473,2.851-2.643,1.028.075,2.57.215,2.661-.1.271-.928,1.1-1.984,3.862-2.36,1.078-.055,2.708.463,3.094.3.608-.26-1.362-.769-.755-1.029-4.878-.578-9.659-.79-14.478-.915,1.282-.057,2.536-.144,3.742-.28,2.162-.244,5.772.6,7.207-.521l-2.162.024c2.158-.685,4.326-.049,6.487-.294,0-.441,0-.66.717-.889a38.548,38.548,0,0,1-5.048.057l0-.66c1.442-.237,3.607.179,5.048-.057,0-.221,0-.661-.005-.881s.72-.228,1.44-.236l-2.884.032c0-.22,0-.66-.005-.88s.719-.229,1.441-.237c0-.44.716-.888-.007-1.1l-2.164.024c2.883-.253,4.319-1.369,4.315-2.03-.721.229-.725-.432-1.444-.2C484.423,312.834,486.581,311.929,483.7,311.742Z" transform="translate(0 -26.134)" fill="url(#linear-gradient-2)"/>
      <path id="Path_9936" data-name="Path 9936" d="M493.688,311.221a7.973,7.973,0,0,1-1.832-.667,27.714,27.714,0,1,1,2.468-38.963,10.79,10.79,0,0,1,1.713-.748,29.505,29.505,0,1,0-2.286,40.391Z" transform="translate(-34.542)" fill="url(#linear-gradient-3)"/>
    </g>
    <text id="Offers" transform="translate(624.3 155)" fill="#fff" font-size="20" font-family="Poppins-Medium, Poppins" font-weight="500"><tspan x="0" y="0">Offers</tspan></text>
  </g>
</svg>
